<?xml version="1.0" encoding="utf-8" ?>
<svg baseProfile="full" height="450mm" version="1.1" width="320mm" xmlns="http://www.w3.org/2000/svg" xmlns:ev="http://www.w3.org/2001/xml-events" xmlns:xlink="http://www.w3.org/1999/xlink"><defs /><rect fill="none" height="207mm" stroke="rgb(0,159,228)" stroke-width="3mm" width="294mm" x="14.106999999999971mm" y="8.946mm" /><rect fill="none" height="213mm" stroke="rgb(177,6,50)" stroke-width="3mm" width="300mm" x="11.106999999999971mm" y="5.946mm" /><line stroke="rgb(0,159,228)" stroke-width="3mm" x1="12.606999999999971mm" x2="309.60699999999997mm" y1="59.946mm" y2="59.946mm" /><line stroke="black" stroke-dasharray="2,1" stroke-width="0.25mm" x1="12.606999999999971mm" x2="309.60699999999997mm" y1="59.946mm" y2="59.946mm" /><line stroke="rgb(0,159,228)" stroke-width="3mm" x1="12.606999999999971mm" x2="309.60699999999997mm" y1="77.446mm" y2="77.446mm" /><line stroke="black" stroke-dasharray="2,1" stroke-width="0.25mm" x1="12.606999999999971mm" x2="309.60699999999997mm" y1="77.446mm" y2="77.446mm" /><line stroke="rgb(0,159,228)" stroke-width="3mm" x1="12.606999999999971mm" x2="309.60699999999997mm" y1="112.446mm" y2="112.446mm" /><line stroke="black" stroke-dasharray="2,1" stroke-width="0.25mm" x1="12.606999999999971mm" x2="309.60699999999997mm" y1="112.446mm" y2="112.446mm" /><line stroke="rgb(0,159,228)" stroke-width="3mm" x1="12.606999999999971mm" x2="309.60699999999997mm" y1="147.446mm" y2="147.446mm" /><line stroke="black" stroke-dasharray="2,1" stroke-width="0.25mm" x1="12.606999999999971mm" x2="309.60699999999997mm" y1="147.446mm" y2="147.446mm" /><line stroke="rgb(0,159,228)" stroke-width="3mm" x1="12.606999999999971mm" x2="309.60699999999997mm" y1="164.946mm" y2="164.946mm" /><line stroke="black" stroke-dasharray="2,1" stroke-width="0.25mm" x1="12.606999999999971mm" x2="309.60699999999997mm" y1="164.946mm" y2="164.946mm" /><rect fill="none" height="210mm" stroke="black" stroke-dasharray="2,1" stroke-width="0.25mm" width="297mm" x="12.606999999999971mm" y="7.446mm" /><text fill="grey" font-family="Verdana" font-size="4mm" text-anchor="start" x="16.60699999999997mm" y="15.446mm">&lt;output/svg/7A_320x450_to_2up_297x210_cut_job_with_3mm_deviation.svg&gt;</text><text fill="black" font-family="Verdana" font-size="30mm" text-anchor="end" x="161.10699999999997mm" y="48.696mm">7.1A</text><circle cx="284.60699999999997mm" cy="32.446mm" fill="rgb(91,204,255)" r="20.0mm" /><circle cx="284.60699999999997mm" cy="32.446mm" fill="rgb(255,255,255)" r="13.333333333333334mm" /><circle cx="284.60699999999997mm" cy="32.446mm" fill="rgb(91,204,255)" r="6.666666666666667mm" /><line stroke="black" stroke-width="0.6mm" x1="284.60699999999997mm" x2="291.98699999999997mm" y1="32.446mm" y2="32.446mm" /><line stroke="black" stroke-width="0.6mm" x1="284.60699999999997mm" x2="284.60699999999997mm" y1="32.446mm" y2="15.41933333333333mm" /><text fill="black" font-family="Verdana" font-size="4mm" text-anchor="end" x="262.60699999999997mm" y="34.446mm">-1.107  mm</text><text fill="black" font-family="Verdana" font-size="4mm" text-anchor="middle" x="284.60699999999997mm" y="57.446mm">-2.554  mm</text><rect fill="none" height="207mm" stroke="rgb(0,159,228)" stroke-width="3mm" width="294mm" x="14.106999999999971mm" y="228.946mm" /><rect fill="none" height="213mm" stroke="rgb(177,6,50)" stroke-width="3mm" width="300mm" x="11.106999999999971mm" y="225.946mm" /><line stroke="rgb(0,159,228)" stroke-width="3mm" x1="12.606999999999971mm" x2="309.60699999999997mm" y1="279.946mm" y2="279.946mm" /><line stroke="black" stroke-dasharray="2,1" stroke-width="0.25mm" x1="12.606999999999971mm" x2="309.60699999999997mm" y1="279.946mm" y2="279.946mm" /><line stroke="rgb(0,159,228)" stroke-width="3mm" x1="12.606999999999971mm" x2="309.60699999999997mm" y1="297.446mm" y2="297.446mm" /><line stroke="black" stroke-dasharray="2,1" stroke-width="0.25mm" x1="12.606999999999971mm" x2="309.60699999999997mm" y1="297.446mm" y2="297.446mm" /><line stroke="rgb(0,159,228)" stroke-width="3mm" x1="12.606999999999971mm" x2="309.60699999999997mm" y1="332.446mm" y2="332.446mm" /><line stroke="black" stroke-dasharray="2,1" stroke-width="0.25mm" x1="12.606999999999971mm" x2="309.60699999999997mm" y1="332.446mm" y2="332.446mm" /><line stroke="rgb(0,159,228)" stroke-width="3mm" x1="12.606999999999971mm" x2="309.60699999999997mm" y1="367.446mm" y2="367.446mm" /><line stroke="black" stroke-dasharray="2,1" stroke-width="0.25mm" x1="12.606999999999971mm" x2="309.60699999999997mm" y1="367.446mm" y2="367.446mm" /><line stroke="rgb(0,159,228)" stroke-width="3mm" x1="12.606999999999971mm" x2="309.60699999999997mm" y1="384.946mm" y2="384.946mm" /><line stroke="black" stroke-dasharray="2,1" stroke-width="0.25mm" x1="12.606999999999971mm" x2="309.60699999999997mm" y1="384.946mm" y2="384.946mm" /><rect fill="none" height="210mm" stroke="black" stroke-dasharray="2,1" stroke-width="0.25mm" width="297mm" x="12.606999999999971mm" y="227.446mm" /><text fill="grey" font-family="Verdana" font-size="4mm" text-anchor="start" x="16.60699999999997mm" y="235.446mm">&lt;output/svg/7A_320x450_to_2up_297x210_cut_job_with_3mm_deviation.svg&gt;</text><text fill="black" font-family="Verdana" font-size="30mm" text-anchor="end" x="161.10699999999997mm" y="268.696mm">7.2A</text><circle cx="284.60699999999997mm" cy="252.446mm" fill="rgb(91,204,255)" r="20.0mm" /><circle cx="284.60699999999997mm" cy="252.446mm" fill="rgb(255,255,255)" r="13.333333333333334mm" /><circle cx="284.60699999999997mm" cy="252.446mm" fill="rgb(91,204,255)" r="6.666666666666667mm" /><line stroke="black" stroke-width="0.6mm" x1="284.60699999999997mm" x2="291.98699999999997mm" y1="252.446mm" y2="252.446mm" /><line stroke="black" stroke-width="0.6mm" x1="284.60699999999997mm" x2="284.60699999999997mm" y1="252.446mm" y2="235.41933333333333mm" /><text fill="black" font-family="Verdana" font-size="4mm" text-anchor="end" x="262.60699999999997mm" y="254.446mm">-1.107  mm</text><text fill="black" font-family="Verdana" font-size="4mm" text-anchor="middle" x="284.60699999999997mm" y="277.446mm">-2.554  mm</text><line stroke="black" stroke-width="1mm" x1="316.107mm" x2="306.107mm" y1="2.946mm" y2="2.946mm" /><line stroke="black" stroke-width="1mm" x1="315.607mm" x2="315.607mm" y1="2.446mm" y2="12.446mm" /></svg>